:SAMPLES-PER-SECOND 30
:FULLY-SPECIFIED
:DEGREES
33
root  68.3738 38.8127 25.0721 -61.6948 -85.6374 62.6592
RightUpLeg  11.4023 -10.227 -8.7043
RightLeg  10.5297 -1.76732 2.17121
RightFoot  -21.6469 0.0344138 2.0009
RightToes  2.32829e-010 0 -3.6325e-017
Spine  5.92532 1.84737 11.6143
Spine1  8.4459 5.39746 -11.9709
HEad  -5.72396 -4.05704 -2.54865
LeftShoulder1  9.06204 -12.6003 -49.1247
LeftArm  -33.8418 18.9935 -31.0368
LeftForeArm  5.5674 5.01985 6.79069
LeftHand  -0.244104 0.0205437 5.32207
RightShoulder  6.62365 10.5669 40.8849
RightArm  7.76949 -2.01305 30.9262
RightForeArm  -3.75725 27.1947 6.05539
RightHand  -0.168327 -3.80318 -11.3685
LeftUpLeg  -27.1463 5.93463 -6.35438
LeftLeg  10.0591 8.43856 -1.53067
LeftFoot  -1.92771 0.315049 -3.6828
LeftToes  -2.63786e-011 3.77076e-011 -4.2586e-012
34
root  67.2797 38.5417 25.0968 -65.8841 -85.9118 66.9686
RightUpLeg  13.2393 -10.29 -9.10197
RightLeg  10.2643 -0.948486 2.30387
RightFoot  -22.5952 0.118414 2.75379
RightToes  2.32829e-010 0 -3.6325e-017
Spine  6.7134 2.08334 10.9018
Spine1  8.2642 5.64682 -11.8562
HEad  -7.08333 -3.94844 -2.95197
LeftShoulder1  8.88794 -12.4915 -48.5053
LeftArm  -29.6563 21.8995 -29.2516
LeftForeArm  11.2946 1.89602 4.87729
LeftHand  -0.244104 0.0205437 5.32207
RightShoulder  6.57249 10.4399 40.9421
RightArm  4.46497 -0.344406 30.7148
RightForeArm  -4.01271 29.0903 6.52814
RightHand  -0.151218 -3.95232 -11.1779
LeftUpLeg  -27.9783 4.24579 -5.08526
LeftLeg  8.45871 11.9051 -2.27301
LeftFoot  -1.71945 0.201495 -2.25692
LeftToes  -2.63786e-011 3.77076e-011 -4.2586e-012
35
root  66.0218 38.238 25.1842 -75.6975 -86.3128 76.8785
RightUpLeg  15.0271 -10.5211 -9.77399
RightLeg  10.5672 0.565578 2.32614
RightFoot  -23.0814 0.212562 3.58959
RightToes  2.32829e-010 0 -3.6325e-017
Spine  7.23305 2.37707 10.5659
Spine1  8.13483 6.07373 -12.2114
HEad  -8.46539 -3.95357 -3.44198
LeftShoulder1  8.63853 -12.3053 -47.6893
LeftArm  -7.97289 30.6449 -24.157
LeftForeArm  23.4504 -10.0724 -5.67081
LeftHand  -0.244104 0.0205437 5.32207
RightShoulder  6.57678 10.4242 41.0211
RightArm  0.980741 0.365763 31.0205
RightForeArm  -4.89291 31.1026 7.08321
RightHand  -0.210539 -3.44887 -11.8286
LeftUpLeg  -29.0676 6.54263 -6.03067
LeftLeg  10.1927 11.7378 -1.20159
LeftFoot  -1.59785 0.0949894 -1.00551
LeftToes  -2.63786e-011 3.77076e-011 -4.2586e-012
36
root  64.5748 37.9619 25.3341 -93.7325 -86.2358 95.092
RightUpLeg  16.4885 -10.8345 -11.0922
RightLeg  11.7125 2.84495 2.05761
RightFoot  -22.8372 0.309636 4.60138
RightToes  2.32829e-010 0 -3.6325e-017
Spine  7.11142 2.82865 9.82941
Spine1  8.26016 6.65907 -12.6518
HEad  -9.51725 -3.33669 -2.91011
LeftShoulder1  8.37532 -12.0383 -47.0184
LeftArm  -9.10152 30.9357 -23.356
LeftForeArm  20.5247 -10.3178 -4.93977
LeftHand  -0.244104 0.0205437 5.32207
RightShoulder  6.54855 10.4014 40.9029
RightArm  -1.03137 0.28252 31.9349
RightForeArm  -6.77386 32.4336 7.53352
RightHand  -0.493386 -1.39274 -14.0935
LeftUpLeg  -30.0098 10.6433 -8.4887
LeftLeg  13.6025 9.83899 1.0007
LeftFoot  0.0854907 -0.0658674 0.610487
LeftToes  -2.63786e-011 3.77076e-011 -4.2586e-012
37
root  63.0044 37.7591 25.4969 -106.957 -85.348 108.403
RightUpLeg  17.5237 -10.4132 -12.7382
RightLeg  13.8982 4.82525 1.6081
RightFoot  -21.9181 0.530921 7.33863
RightToes  2.32829e-010 0 -3.6325e-017
Spine  6.81 3.2856 7.67799
Spine1  8.21594 6.95394 -12.3337
HEad  -10.1049 -2.52498 -2.16675
LeftShoulder1  8.22859 -11.8037 -46.8989
LeftArm  -9.12074 30.786 -22.0152
LeftForeArm  20.4559 -9.31949 -4.84426
LeftHand  -0.244104 0.0205437 5.32207
RightShoulder  6.51844 10.3161 40.972
RightArm  -1.11364 -0.488013 33.0192
RightForeArm  -8.9791 32.3181 7.61952
RightHand  -0.966582 1.34142 -16.7664
LeftUpLeg  -30.5319 13.8263 -10.9358
LeftLeg  17.4665 8.16163 2.97876
LeftFoot  2.51829 -0.362407 2.86007
LeftToes  -2.63786e-011 3.77076e-011 -4.2586e-012
38
root  61.4057 37.6822 25.656 -106.926 -84.4416 108.135
RightUpLeg  17.5221 -7.98323 -13.5687
RightLeg  18.2604 4.11229 1.1856
RightFoot  -19.1153 0.670438 12.0106
RightToes  2.32829e-010 0 -3.6325e-017
Spine  6.82853 3.42028 4.52981
Spine1  7.83722 6.59984 -11.1489
HEad  -10.3787 -2.06987 -1.96189
LeftShoulder1  8.2837 -11.7743 -47.3101
LeftArm  -8.96164 30.4795 -20.642
LeftForeArm  22.1036 -8.61257 -4.69741
LeftHand  -0.244104 0.0205437 5.32207
RightShoulder  6.55698 10.2189 41.5485
RightArm  0.355461 -1.93378 33.7293
RightForeArm  -10.195 30.683 7.25043
RightHand  -1.28614 2.8244 -18.3041
LeftUpLeg  -30.0504 14.031 -11.7709
LeftLeg  21.4249 8.15866 3.87624
LeftFoot  2.88778 -0.605084 4.73304
LeftToes  -2.63786e-011 3.77076e-011 -4.2586e-012
39
root  59.8282 37.7811 25.8519 -101.829 -84.0375 102.547
RightUpLeg  15.2182 -4.60418 -13.3577
RightLeg  26.4417 1.26817 0.432339
RightFoot  -11.8289 -0.0114779 15.4033
RightToes  2.32829e-010 0 -3.6325e-017
Spine  7.02952 3.21295 1.90874
Spine1  7.46807 5.87546 -9.8347
HEad  -10.2934 -1.67525 -1.95358
LeftShoulder1  8.4602 -11.9592 -47.7499
LeftArm  -8.71153 29.3554 -19.882
LeftForeArm  21.3202 -7.76389 -4.74595
LeftHand  -0.244104 0.0205437 5.32207
RightShoulder  6.66564 10.2024 42.3415
RightArm  3.6971 -3.83239 33.9587
RightForeArm  -10.3949 27.8094 6.52469
RightHand  -1.25262 2.57825 -18.3284
LeftUpLeg  -28.3511 13.5305 -12.0069
LeftLeg  24.4011 7.93651 4.25246
LeftFoot  0.257138 -0.549006 5.36949
LeftToes  -2.63786e-011 3.77076e-011 -4.2586e-012
40
root  58.315 38.006 26.0947 -99.2147 -83.8315 99.4765
RightUpLeg  10.125 -1.67285 -12.8553
RightLeg  37.4712 -0.658554 -0.779187
RightFoot  0.122072 -1.36159 14.0202
RightToes  2.32829e-010 0 -3.6325e-017
Spine  7.01016 2.93019 0.275665
Spine1  7.44706 5.24699 -8.88467
HEad  -9.74972 -1.06259 -2.06712
LeftShoulder1  8.58131 -12.1537 -47.8343
LeftArm  -8.71239 26.8819 -20.1142
LeftForeArm  20.3069 -6.46588 -4.83528
LeftHand  -0.244104 0.0205437 5.32207
RightShoulder  6.80986 10.3177 42.9335
RightArm  9.54069 -5.78957 33.9772
RightForeArm  -10.3719 24.2026 5.76798
RightHand  -1.0593 1.70681 -17.3984
LeftUpLeg  -25.6197 13.2127 -12.0046
LeftLeg  25.5934 7.96515 4.47693
LeftFoot  -3.27751 -0.344572 5.15771
LeftToes  -2.63786e-011 3.77076e-011 -4.2586e-012
41
root  56.9235 38.221 26.3269 -100.008 -83.427 99.9787
RightUpLeg  3.36644 0.962876 -12.5083
RightLeg  48.2861 -0.730592 -1.18001
RightFoot  10.6364 -1.63351 8.73951
RightToes  2.32829e-010 0 -3.6325e-017
Spine  6.87328 2.73408 -1.36172
Spine1  7.75423 4.68934 -8.12058
HEad  -9.07805 -0.491844 -2.68916
LeftShoulder1  8.59446 -12.1978 -47.7722
LeftArm  -8.86637 23.4806 -20.8159
LeftForeArm  20.7014 -5.87334 -4.9874
LeftHand  -0.244104 0.0205437 5.32207
RightShoulder  6.96962 10.5169 43.3391
RightArm  15.6427 -7.70175 33.8866
RightForeArm  -8.52745 20.726 5.80704
RightHand  -0.908902 1.10093 -16.3294
LeftUpLeg  -22.7413 13.4088 -12.1991
LeftLeg  25.6567 8.20092 4.61166
LeftFoot  -5.82791 -0.196052 4.80614
LeftToes  -2.63786e-011 3.77076e-011 -4.2586e-012
42
root  55.5583 38.5169 26.5512 -99.0116 -83.3637 98.6237
RightUpLeg  -3.05541 2.33677 -12.0246
RightLeg  56.2103 -0.360582 -1.02646
RightFoot  14.0848 -0.819494 3.95154
RightToes  2.32829e-010 0 -3.6325e-017
Spine  6.92471 2.33081 -2.5607
Spine1  7.9795 3.91858 -7.1572
HEad  -8.83017 -0.145538 -3.52473
LeftShoulder1  8.62239 -12.1738 -48.0034
LeftArm  -8.66395 19.5714 -21.1808
LeftForeArm  22.1696 -6.6517 -5.36239
LeftHand  -0.244104 0.0205437 5.32207
RightShoulder  7.10953 10.6732 43.7435
RightArm  18.1101 -9.84346 33.5693
RightForeArm  -2.80192 18.085 6.80529
RightHand  -0.831255 0.792261 -15.677
LeftUpLeg  -19.2589 14.1598 -12.0916
LeftLeg  24.3865 7.72843 4.18061
LeftFoot  -7.37416 -0.108165 4.40185
LeftToes  -2.63786e-011 3.77076e-011 -4.2586e-012
43
root  54.1792 38.9349 26.8002 -93.9862 -84.0333 93.0768
RightUpLeg  -8.43453 2.22528 -11.1293
RightLeg  60.1186 -0.623207 -1.67681
RightFoot  11.3889 -0.453273 2.70218
RightToes  2.32829e-010 0 -3.6325e-017
Spine  7.30787 1.65038 -2.55787
Spine1  8.00173 2.99453 -6.14135
HEad  -9.06527 0.114972 -3.85784
LeftShoulder1  8.75297 -12.2435 -48.5195
LeftArm  -8.03136 15.0884 -21.1702
LeftForeArm  23.8523 -8.05216 -5.88248
LeftHand  -0.244104 0.0205437 5.32207
RightShoulder  7.1511 10.6787 43.9948
RightArm  17.7261 -12.4523 33.2313
RightForeArm  3.06001 16.4343 7.42881
RightHand  -0.803185 0.652823 -15.4904
LeftUpLeg  -14.773 15.0981 -11.078
LeftLeg  21.6131 6.43698 3.05928
LeftFoot  -8.56265 -0.0389857 3.72028
LeftToes  -2.63786e-011 3.77076e-011 -4.2586e-012
44
root  52.839 39.2959 27.0519 -85.7006 -84.8854 84.281
RightUpLeg  -13.1076 1.42158 -10.0993
RightLeg  60.2584 -1.27562 -2.91211
RightFoot  6.94882 -0.731275 4.84538
RightToes  2.32829e-010 0 -3.6325e-017
Spine  7.90428 0.961046 -2.12235
Spine1  7.96569 2.07895 -5.27959
HEad  -9.18396 0.453539 -3.63505
LeftShoulder1  8.89585 -12.385 -48.876
LeftArm  -7.29301 10.293 -21.4454
LeftForeArm  25.1056 -9.64695 -6.19183
LeftHand  -0.244104 0.0205437 5.32207
RightShoulder  7.04107 10.5244 43.7827
RightArm  15.213 -15.2649 33.1024
RightForeArm  6.79171 15.1268 7.80897
RightHand  -0.773217 0.542875 -15.1835
LeftUpLeg  -10.1657 14.4895 -9.2967
LeftLeg  18.7373 6.40463 1.65937
LeftFoot  -9.66687 0.014603 2.99778
LeftToes  -2.63786e-011 3.77076e-011 -4.2586e-012
